<svg width="9" height="14" viewBox="0 0 9 14" fill="none" xmlns="http://www.w3.org/2000/svg">
<g clip-path="url(#clip0_1_1315)">
<path d="M0.516164 1.76842C0.319033 1.56842 0.209515 1.30526 0.220467 1.03158C0.220467 0.757894 0.329984 0.505262 0.538068 0.305262C0.7352 0.115788 1.00899 -1.61526e-06 1.29374 -1.59037e-06C1.57849 -1.56547e-06 1.85228 0.0947365 2.06036 0.28421L8.25906 6.2421C8.35763 6.33684 8.43429 6.45263 8.48905 6.57895C8.54381 6.70526 8.57666 6.8421 8.57666 6.97895C8.57666 7.11579 8.54381 7.25263 8.48905 7.38947C8.43429 7.51579 8.35763 7.63158 8.25906 7.72632L2.06036 13.6842C1.9618 13.7789 1.84133 13.8632 1.70991 13.9158C1.56753 13.9684 1.42516 14 1.28279 14C1.14041 14 0.987089 13.9789 0.855668 13.9263C0.724247 13.8737 0.603777 13.7895 0.49426 13.6947C0.395694 13.6 0.319032 13.4737 0.264273 13.3474C0.198562 13.2211 0.176659 13.0842 0.176659 12.9368C0.176659 12.8 0.209514 12.6632 0.264273 12.5368C0.319032 12.4105 0.406646 12.2947 0.516163 12.1895L5.93729 6.97895L4.90782 6L0.516164 1.76842Z" fill="#6342E8"/>
</g>
<defs>
<clipPath id="clip0_1_1315">
<rect width="8.4" height="14" fill="white" transform="translate(8.57666 14) rotate(-180)"/>
</clipPath>
</defs>
</svg>
