<svg width="414" height="320" viewBox="0 0 414 320" fill="none" xmlns="http://www.w3.org/2000/svg">
<g filter="url(#filter0_d_1_1195)">
<mask id="mask0_1_1195" style="mask-type:alpha" maskUnits="userSpaceOnUse" x="20" y="28" width="374" height="240">
<rect x="20" y="28" width="374" height="240" rx="8" fill="#D1BBFF"/>
</mask>
<g mask="url(#mask0_1_1195)">
<rect x="30" y="28" width="354" height="240" rx="8" fill="url(#paint0_linear_1_1195)"/>
<ellipse cx="311.5" cy="151.5" rx="167.5" ry="165.5" fill="white" fill-opacity="0.08"/>
<g filter="url(#filter1_d_1_1195)">
<path d="M54.7746 139.487C55.1746 139.404 55.5579 139.346 55.9246 139.312C56.2912 139.271 56.6454 139.25 56.9871 139.25C57.9371 139.25 58.7746 139.392 59.4996 139.675C60.2246 139.958 60.8329 140.35 61.3246 140.85C61.8162 141.35 62.1871 141.937 62.4371 142.612C62.6871 143.279 62.8121 144 62.8121 144.775C62.8121 145.733 62.6412 146.608 62.2996 147.4C61.9662 148.192 61.4996 148.871 60.8996 149.438C60.2996 149.996 59.5871 150.429 58.7621 150.737C57.9454 151.046 57.0537 151.2 56.0871 151.2C55.5204 151.2 54.9829 151.142 54.4746 151.025C53.9662 150.908 53.4871 150.754 53.0371 150.562C52.5954 150.362 52.1829 150.137 51.7996 149.887C51.4246 149.629 51.0871 149.358 50.7871 149.075L51.7371 147.762C51.9371 147.479 52.1996 147.337 52.5246 147.337C52.7329 147.337 52.9454 147.404 53.1621 147.537C53.3787 147.671 53.6246 147.817 53.8996 147.975C54.1829 148.133 54.5121 148.279 54.8871 148.412C55.2704 148.546 55.7287 148.612 56.2621 148.612C56.8287 148.612 57.3287 148.521 57.7621 148.337C58.1954 148.154 58.5537 147.9 58.8371 147.575C59.1287 147.242 59.3454 146.85 59.4871 146.4C59.6371 145.942 59.7121 145.446 59.7121 144.912C59.7121 143.929 59.4246 143.162 58.8496 142.612C58.2829 142.054 57.4412 141.775 56.3246 141.775C55.4662 141.775 54.5871 141.933 53.6871 142.25L51.7621 141.7L53.2621 132.925H62.1871V134.237C62.1871 134.679 62.0496 135.037 61.7746 135.312C61.4996 135.587 61.0329 135.725 60.3746 135.725H55.4121L54.7746 139.487ZM80.0465 132.925V134.262C80.0465 134.662 80.0049 134.987 79.9215 135.237C79.8382 135.479 79.7549 135.683 79.6715 135.85L72.8215 149.95C72.6799 150.242 72.4799 150.492 72.2215 150.7C71.9632 150.9 71.6174 151 71.184 151H68.9465L75.934 137.187C76.0924 136.904 76.2465 136.646 76.3965 136.412C76.5549 136.171 76.7299 135.942 76.9215 135.725H68.2715C68.0799 135.725 67.9132 135.654 67.7715 135.512C67.6299 135.371 67.559 135.204 67.559 135.012V132.925H80.0465ZM88.1685 139.487C88.5685 139.404 88.9518 139.346 89.3185 139.312C89.6851 139.271 90.0393 139.25 90.381 139.25C91.331 139.25 92.1685 139.392 92.8935 139.675C93.6185 139.958 94.2268 140.35 94.7185 140.85C95.2101 141.35 95.581 141.937 95.831 142.612C96.081 143.279 96.206 144 96.206 144.775C96.206 145.733 96.0351 146.608 95.6935 147.4C95.3601 148.192 94.8935 148.871 94.2935 149.438C93.6935 149.996 92.981 150.429 92.156 150.737C91.3393 151.046 90.4476 151.2 89.481 151.2C88.9143 151.2 88.3768 151.142 87.8685 151.025C87.3601 150.908 86.881 150.754 86.431 150.562C85.9893 150.362 85.5768 150.137 85.1935 149.887C84.8185 149.629 84.481 149.358 84.181 149.075L85.131 147.762C85.331 147.479 85.5935 147.337 85.9185 147.337C86.1268 147.337 86.3393 147.404 86.556 147.537C86.7726 147.671 87.0185 147.817 87.2935 147.975C87.5768 148.133 87.906 148.279 88.281 148.412C88.6643 148.546 89.1226 148.612 89.656 148.612C90.2226 148.612 90.7226 148.521 91.156 148.337C91.5893 148.154 91.9476 147.9 92.231 147.575C92.5226 147.242 92.7393 146.85 92.881 146.4C93.031 145.942 93.106 145.446 93.106 144.912C93.106 143.929 92.8185 143.162 92.2435 142.612C91.6768 142.054 90.8351 141.775 89.7185 141.775C88.8601 141.775 87.981 141.933 87.081 142.25L85.156 141.7L86.656 132.925H95.581V134.237C95.581 134.679 95.4435 135.037 95.1685 135.312C94.8935 135.587 94.4268 135.725 93.7685 135.725H88.806L88.1685 139.487ZM113.44 132.925V134.262C113.44 134.662 113.399 134.987 113.315 135.237C113.232 135.479 113.149 135.683 113.065 135.85L106.215 149.95C106.074 150.242 105.874 150.492 105.615 150.7C105.357 150.9 105.011 151 104.578 151H102.34L109.328 137.187C109.486 136.904 109.64 136.646 109.79 136.412C109.949 136.171 110.124 135.942 110.315 135.725H101.665C101.474 135.725 101.307 135.654 101.165 135.512C101.024 135.371 100.953 135.204 100.953 135.012V132.925H113.44ZM141.936 144.187V138.275C141.936 137.717 141.973 137.1 142.048 136.425L136.436 144.187H141.936ZM146.898 144.187V145.975C146.898 146.142 146.844 146.287 146.736 146.412C146.627 146.529 146.473 146.587 146.273 146.587H144.623V151H141.936V146.587H134.311C134.102 146.587 133.919 146.525 133.761 146.4C133.602 146.267 133.502 146.104 133.461 145.912L133.136 144.35L141.698 132.912H144.623V144.187H146.898ZM163.383 132.925V134.262C163.383 134.662 163.341 134.987 163.258 135.237C163.174 135.479 163.091 135.683 163.008 135.85L156.158 149.95C156.016 150.242 155.816 150.492 155.558 150.7C155.299 150.9 154.953 151 154.52 151H152.283L159.27 137.187C159.428 136.904 159.583 136.646 159.733 136.412C159.891 136.171 160.066 135.942 160.258 135.725H151.608C151.416 135.725 151.249 135.654 151.108 135.512C150.966 135.371 150.895 135.204 150.895 135.012V132.925H163.383ZM175.329 144.187V138.275C175.329 137.717 175.367 137.1 175.442 136.425L169.829 144.187H175.329ZM180.292 144.187V145.975C180.292 146.142 180.238 146.287 180.129 146.412C180.021 146.529 179.867 146.587 179.667 146.587H178.017V151H175.329V146.587H167.704C167.496 146.587 167.313 146.525 167.154 146.4C166.996 146.267 166.896 146.104 166.854 145.912L166.529 144.35L175.092 132.912H178.017V144.187H180.292ZM196.776 132.925V134.262C196.776 134.662 196.735 134.987 196.651 135.237C196.568 135.479 196.485 135.683 196.401 135.85L189.551 149.95C189.41 150.242 189.21 150.492 188.951 150.7C188.693 150.9 188.347 151 187.914 151H185.676L192.664 137.187C192.822 136.904 192.976 136.646 193.126 136.412C193.285 136.171 193.46 135.942 193.651 135.725H185.001C184.81 135.725 184.643 135.654 184.501 135.512C184.36 135.371 184.289 135.204 184.289 135.012V132.925H196.776ZM221.447 139.487C221.847 139.404 222.23 139.346 222.597 139.312C222.963 139.271 223.317 139.25 223.659 139.25C224.609 139.25 225.447 139.392 226.172 139.675C226.897 139.958 227.505 140.35 227.997 140.85C228.488 141.35 228.859 141.937 229.109 142.612C229.359 143.279 229.484 144 229.484 144.775C229.484 145.733 229.313 146.608 228.972 147.4C228.638 148.192 228.172 148.871 227.572 149.438C226.972 149.996 226.259 150.429 225.434 150.737C224.617 151.046 223.726 151.2 222.759 151.2C222.192 151.2 221.655 151.142 221.147 151.025C220.638 150.908 220.159 150.754 219.709 150.562C219.267 150.362 218.855 150.137 218.472 149.887C218.097 149.629 217.759 149.358 217.459 149.075L218.409 147.762C218.609 147.479 218.872 147.337 219.197 147.337C219.405 147.337 219.617 147.404 219.834 147.537C220.051 147.671 220.297 147.817 220.572 147.975C220.855 148.133 221.184 148.279 221.559 148.412C221.942 148.546 222.401 148.612 222.934 148.612C223.501 148.612 224.001 148.521 224.434 148.337C224.867 148.154 225.226 147.9 225.509 147.575C225.801 147.242 226.017 146.85 226.159 146.4C226.309 145.942 226.384 145.446 226.384 144.912C226.384 143.929 226.097 143.162 225.522 142.612C224.955 142.054 224.113 141.775 222.997 141.775C222.138 141.775 221.259 141.933 220.359 142.25L218.434 141.7L219.934 132.925H228.859V134.237C228.859 134.679 228.722 135.037 228.447 135.312C228.172 135.587 227.705 135.725 227.047 135.725H222.084L221.447 139.487ZM246.719 132.925V134.262C246.719 134.662 246.677 134.987 246.594 135.237C246.51 135.479 246.427 135.683 246.344 135.85L239.494 149.95C239.352 150.242 239.152 150.492 238.894 150.7C238.635 150.9 238.289 151 237.856 151H235.619L242.606 137.187C242.764 136.904 242.919 136.646 243.069 136.412C243.227 136.171 243.402 135.942 243.594 135.725H234.944C234.752 135.725 234.585 135.654 234.444 135.512C234.302 135.371 234.231 135.204 234.231 135.012V132.925H246.719ZM254.841 139.487C255.241 139.404 255.624 139.346 255.991 139.312C256.357 139.271 256.711 139.25 257.053 139.25C258.003 139.25 258.841 139.392 259.566 139.675C260.291 139.958 260.899 140.35 261.391 140.85C261.882 141.35 262.253 141.937 262.503 142.612C262.753 143.279 262.878 144 262.878 144.775C262.878 145.733 262.707 146.608 262.366 147.4C262.032 148.192 261.566 148.871 260.966 149.438C260.366 149.996 259.653 150.429 258.828 150.737C258.011 151.046 257.12 151.2 256.153 151.2C255.586 151.2 255.049 151.142 254.541 151.025C254.032 150.908 253.553 150.754 253.103 150.562C252.661 150.362 252.249 150.137 251.866 149.887C251.491 149.629 251.153 149.358 250.853 149.075L251.803 147.762C252.003 147.479 252.266 147.337 252.591 147.337C252.799 147.337 253.011 147.404 253.228 147.537C253.445 147.671 253.691 147.817 253.966 147.975C254.249 148.133 254.578 148.279 254.953 148.412C255.336 148.546 255.795 148.612 256.328 148.612C256.895 148.612 257.395 148.521 257.828 148.337C258.261 148.154 258.62 147.9 258.903 147.575C259.195 147.242 259.411 146.85 259.553 146.4C259.703 145.942 259.778 145.446 259.778 144.912C259.778 143.929 259.491 143.162 258.916 142.612C258.349 142.054 257.507 141.775 256.391 141.775C255.532 141.775 254.653 141.933 253.753 142.25L251.828 141.7L253.328 132.925H262.253V134.237C262.253 134.679 262.116 135.037 261.841 135.312C261.566 135.587 261.099 135.725 260.441 135.725H255.478L254.841 139.487ZM280.112 132.925V134.262C280.112 134.662 280.071 134.987 279.987 135.237C279.904 135.479 279.821 135.683 279.737 135.85L272.887 149.95C272.746 150.242 272.546 150.492 272.287 150.7C272.029 150.9 271.683 151 271.25 151H269.012L276 137.187C276.158 136.904 276.312 136.646 276.462 136.412C276.621 136.171 276.796 135.942 276.987 135.725H268.337C268.146 135.725 267.979 135.654 267.837 135.512C267.696 135.371 267.625 135.204 267.625 135.012V132.925H280.112ZM308.608 144.187V138.275C308.608 137.717 308.645 137.1 308.72 136.425L303.108 144.187H308.608ZM313.57 144.187V145.975C313.57 146.142 313.516 146.287 313.408 146.412C313.299 146.529 313.145 146.587 312.945 146.587H311.295V151H308.608V146.587H300.983C300.774 146.587 300.591 146.525 300.433 146.4C300.274 146.267 300.174 146.104 300.133 145.912L299.808 144.35L308.37 132.912H311.295V144.187H313.57ZM330.055 132.925V134.262C330.055 134.662 330.013 134.987 329.93 135.237C329.846 135.479 329.763 135.683 329.68 135.85L322.83 149.95C322.688 150.242 322.488 150.492 322.23 150.7C321.971 150.9 321.625 151 321.192 151H318.955L325.942 137.187C326.1 136.904 326.255 136.646 326.405 136.412C326.563 136.171 326.738 135.942 326.93 135.725H318.28C318.088 135.725 317.921 135.654 317.78 135.512C317.638 135.371 317.567 135.204 317.567 135.012V132.925H330.055ZM342.002 144.187V138.275C342.002 137.717 342.039 137.1 342.114 136.425L336.502 144.187H342.002ZM346.964 144.187V145.975C346.964 146.142 346.91 146.287 346.802 146.412C346.693 146.529 346.539 146.587 346.339 146.587H344.689V151H342.002V146.587H334.377C334.168 146.587 333.985 146.525 333.827 146.4C333.668 146.267 333.568 146.104 333.527 145.912L333.202 144.35L341.764 132.912H344.689V144.187H346.964ZM363.448 132.925V134.262C363.448 134.662 363.407 134.987 363.323 135.237C363.24 135.479 363.157 135.683 363.073 135.85L356.223 149.95C356.082 150.242 355.882 150.492 355.623 150.7C355.365 150.9 355.019 151 354.586 151H352.348L359.336 137.187C359.494 136.904 359.648 136.646 359.798 136.412C359.957 136.171 360.132 135.942 360.323 135.725H351.673C351.482 135.725 351.315 135.654 351.173 135.512C351.032 135.371 350.961 135.204 350.961 135.012V132.925H363.448Z" fill="white"/>
</g>
<g filter="url(#filter2_d_1_1195)">
<path d="M59.132 217.216L53.876 230.113H52.31L47.054 217.216H48.449C48.605 217.216 48.731 217.255 48.827 217.333C48.923 217.411 48.995 217.51 49.043 217.63L52.679 226.729C52.757 226.933 52.832 227.155 52.904 227.395C52.982 227.635 53.051 227.887 53.111 228.151C53.171 227.887 53.234 227.635 53.3 227.395C53.366 227.155 53.438 226.933 53.516 226.729L57.143 217.63C57.179 217.528 57.248 217.435 57.35 217.351C57.458 217.261 57.587 217.216 57.737 217.216H59.132ZM67.2508 225.325L65.2258 220.078C65.1658 219.922 65.1028 219.742 65.0368 219.538C64.9708 219.328 64.9078 219.106 64.8478 218.872C64.7218 219.358 64.5928 219.763 64.4608 220.087L62.4358 225.325H67.2508ZM70.8868 230.113H69.5368C69.3808 230.113 69.2548 230.074 69.1588 229.996C69.0628 229.918 68.9908 229.819 68.9428 229.699L67.7368 226.585H61.9498L60.7438 229.699C60.7078 229.807 60.6388 229.903 60.5368 229.987C60.4348 230.071 60.3088 230.113 60.1588 230.113H58.8088L63.9658 217.216H65.7298L70.8868 230.113ZM76.6965 223.462C77.2005 223.462 77.6445 223.402 78.0285 223.282C78.4185 223.156 78.7425 222.982 79.0005 222.76C79.2645 222.532 79.4625 222.262 79.5945 221.95C79.7265 221.638 79.7925 221.293 79.7925 220.915C79.7925 220.147 79.5405 219.568 79.0365 219.178C78.5325 218.788 77.7765 218.593 76.7685 218.593H74.8605V223.462H76.6965ZM82.6545 230.113H81.1065C80.7885 230.113 80.5545 229.99 80.4045 229.744L77.0565 225.136C76.9545 224.992 76.8435 224.89 76.7235 224.83C76.6095 224.764 76.4295 224.731 76.1835 224.731H74.8605V230.113H73.1235V217.216H76.7685C77.5845 217.216 78.2895 217.3 78.8835 217.468C79.4775 217.63 79.9665 217.867 80.3505 218.179C80.7405 218.491 81.0285 218.869 81.2145 219.313C81.4005 219.751 81.4935 220.243 81.4935 220.789C81.4935 221.245 81.4215 221.671 81.2775 222.067C81.1335 222.463 80.9235 222.82 80.6475 223.138C80.3775 223.45 80.0445 223.717 79.6485 223.939C79.2585 224.161 78.8145 224.329 78.3165 224.443C78.5385 224.569 78.7305 224.752 78.8925 224.992L82.6545 230.113ZM91.7976 225.325L89.7726 220.078C89.7126 219.922 89.6496 219.742 89.5836 219.538C89.5176 219.328 89.4546 219.106 89.3946 218.872C89.2686 219.358 89.1396 219.763 89.0076 220.087L86.9826 225.325H91.7976ZM95.4336 230.113H94.0836C93.9276 230.113 93.8016 230.074 93.7056 229.996C93.6096 229.918 93.5376 229.819 93.4896 229.699L92.2836 226.585H86.4966L85.2906 229.699C85.2546 229.807 85.1856 229.903 85.0836 229.987C84.9816 230.071 84.8556 230.113 84.7056 230.113H83.3556L88.5126 217.216H90.2766L95.4336 230.113ZM105.126 218.683H100.95V230.113H99.2127V218.683H95.0277V217.216H105.126V218.683ZM118.777 219.232C118.723 219.322 118.663 219.391 118.597 219.439C118.537 219.481 118.462 219.502 118.372 219.502C118.27 219.502 118.15 219.451 118.012 219.349C117.874 219.247 117.7 219.136 117.49 219.016C117.286 218.89 117.037 218.776 116.743 218.674C116.455 218.572 116.104 218.521 115.69 218.521C115.3 218.521 114.955 218.575 114.655 218.683C114.361 218.785 114.112 218.926 113.908 219.106C113.71 219.286 113.56 219.499 113.458 219.745C113.356 219.985 113.305 220.246 113.305 220.528C113.305 220.888 113.392 221.188 113.566 221.428C113.746 221.662 113.98 221.863 114.268 222.031C114.562 222.199 114.892 222.346 115.258 222.472C115.63 222.592 116.008 222.718 116.392 222.85C116.782 222.982 117.16 223.132 117.526 223.3C117.898 223.462 118.228 223.669 118.516 223.921C118.81 224.173 119.044 224.482 119.218 224.848C119.398 225.214 119.488 225.664 119.488 226.198C119.488 226.762 119.392 227.293 119.2 227.791C119.008 228.283 118.726 228.712 118.354 229.078C117.988 229.444 117.535 229.732 116.995 229.942C116.461 230.152 115.852 230.257 115.168 230.257C114.328 230.257 113.566 230.107 112.882 229.807C112.198 229.501 111.613 229.09 111.127 228.574L111.631 227.746C111.679 227.68 111.736 227.626 111.802 227.584C111.874 227.536 111.952 227.512 112.036 227.512C112.114 227.512 112.201 227.545 112.297 227.611C112.399 227.671 112.513 227.749 112.639 227.845C112.765 227.941 112.909 228.046 113.071 228.16C113.233 228.274 113.416 228.379 113.62 228.475C113.83 228.571 114.067 228.652 114.331 228.718C114.595 228.778 114.892 228.808 115.222 228.808C115.636 228.808 116.005 228.751 116.329 228.637C116.653 228.523 116.926 228.364 117.148 228.16C117.376 227.95 117.55 227.701 117.67 227.413C117.79 227.125 117.85 226.804 117.85 226.45C117.85 226.06 117.76 225.742 117.58 225.496C117.406 225.244 117.175 225.034 116.887 224.866C116.599 224.698 116.269 224.557 115.897 224.443C115.525 224.323 115.147 224.203 114.763 224.083C114.379 223.957 114.001 223.813 113.629 223.651C113.257 223.489 112.927 223.279 112.639 223.021C112.351 222.763 112.117 222.442 111.937 222.058C111.763 221.668 111.676 221.188 111.676 220.618C111.676 220.162 111.763 219.721 111.937 219.295C112.117 218.869 112.375 218.491 112.711 218.161C113.053 217.831 113.47 217.567 113.962 217.369C114.46 217.171 115.03 217.072 115.672 217.072C116.392 217.072 117.046 217.186 117.634 217.414C118.228 217.642 118.75 217.972 119.2 218.404L118.777 219.232ZM124.239 230.113H122.493V217.216H124.239V230.113ZM138.527 217.216V230.113H137.654C137.516 230.113 137.399 230.089 137.303 230.041C137.213 229.993 137.123 229.912 137.033 229.798L129.572 220.078C129.584 220.228 129.593 220.375 129.599 220.519C129.605 220.663 129.608 220.798 129.608 220.924V230.113H128.078V217.216H128.978C129.056 217.216 129.122 217.222 129.176 217.234C129.23 217.24 129.278 217.255 129.32 217.279C129.362 217.297 129.404 217.327 129.446 217.369C129.488 217.405 129.533 217.453 129.581 217.513L137.042 227.224C137.03 227.068 137.018 226.918 137.006 226.774C137 226.624 136.997 226.483 136.997 226.351V217.216H138.527ZM152.84 223.912V228.862C152.192 229.33 151.499 229.681 150.761 229.915C150.029 230.143 149.225 230.257 148.349 230.257C147.311 230.257 146.375 230.098 145.541 229.78C144.707 229.456 143.993 229.006 143.399 228.43C142.811 227.848 142.358 227.152 142.04 226.342C141.722 225.532 141.563 224.641 141.563 223.669C141.563 222.685 141.716 221.788 142.022 220.978C142.334 220.168 142.775 219.475 143.345 218.899C143.915 218.317 144.608 217.867 145.424 217.549C146.24 217.231 147.152 217.072 148.16 217.072C148.67 217.072 149.144 217.111 149.582 217.189C150.02 217.261 150.425 217.369 150.797 217.513C151.169 217.651 151.514 217.822 151.832 218.026C152.15 218.224 152.447 218.449 152.723 218.701L152.228 219.493C152.15 219.613 152.048 219.691 151.922 219.727C151.802 219.757 151.667 219.727 151.517 219.637C151.373 219.553 151.208 219.451 151.022 219.331C150.836 219.211 150.608 219.097 150.338 218.989C150.074 218.875 149.759 218.779 149.393 218.701C149.033 218.623 148.604 218.584 148.106 218.584C147.38 218.584 146.723 218.704 146.135 218.944C145.547 219.178 145.046 219.517 144.632 219.961C144.218 220.399 143.9 220.933 143.678 221.563C143.456 222.187 143.345 222.889 143.345 223.669C143.345 224.479 143.459 225.205 143.687 225.847C143.921 226.483 144.251 227.026 144.677 227.476C145.109 227.92 145.631 228.259 146.243 228.493C146.855 228.727 147.542 228.844 148.304 228.844C148.904 228.844 149.435 228.778 149.897 228.646C150.365 228.508 150.821 228.319 151.265 228.079V225.244H149.258C149.144 225.244 149.051 225.211 148.979 225.145C148.913 225.079 148.88 224.998 148.88 224.902V223.912H152.84ZM166.502 217.216V230.113H164.756V224.245H157.799V230.113H156.053V217.216H157.799V222.967H164.756V217.216H166.502ZM182.081 219.232C182.027 219.322 181.967 219.391 181.901 219.439C181.841 219.481 181.766 219.502 181.676 219.502C181.574 219.502 181.454 219.451 181.316 219.349C181.178 219.247 181.004 219.136 180.794 219.016C180.59 218.89 180.341 218.776 180.047 218.674C179.759 218.572 179.408 218.521 178.994 218.521C178.604 218.521 178.259 218.575 177.959 218.683C177.665 218.785 177.416 218.926 177.212 219.106C177.014 219.286 176.864 219.499 176.762 219.745C176.66 219.985 176.609 220.246 176.609 220.528C176.609 220.888 176.696 221.188 176.87 221.428C177.05 221.662 177.284 221.863 177.572 222.031C177.866 222.199 178.196 222.346 178.562 222.472C178.934 222.592 179.312 222.718 179.696 222.85C180.086 222.982 180.464 223.132 180.83 223.3C181.202 223.462 181.532 223.669 181.82 223.921C182.114 224.173 182.348 224.482 182.522 224.848C182.702 225.214 182.792 225.664 182.792 226.198C182.792 226.762 182.696 227.293 182.504 227.791C182.312 228.283 182.03 228.712 181.658 229.078C181.292 229.444 180.839 229.732 180.299 229.942C179.765 230.152 179.156 230.257 178.472 230.257C177.632 230.257 176.87 230.107 176.186 229.807C175.502 229.501 174.917 229.09 174.431 228.574L174.935 227.746C174.983 227.68 175.04 227.626 175.106 227.584C175.178 227.536 175.256 227.512 175.34 227.512C175.418 227.512 175.505 227.545 175.601 227.611C175.703 227.671 175.817 227.749 175.943 227.845C176.069 227.941 176.213 228.046 176.375 228.16C176.537 228.274 176.72 228.379 176.924 228.475C177.134 228.571 177.371 228.652 177.635 228.718C177.899 228.778 178.196 228.808 178.526 228.808C178.94 228.808 179.309 228.751 179.633 228.637C179.957 228.523 180.23 228.364 180.452 228.16C180.68 227.95 180.854 227.701 180.974 227.413C181.094 227.125 181.154 226.804 181.154 226.45C181.154 226.06 181.064 225.742 180.884 225.496C180.71 225.244 180.479 225.034 180.191 224.866C179.903 224.698 179.573 224.557 179.201 224.443C178.829 224.323 178.451 224.203 178.067 224.083C177.683 223.957 177.305 223.813 176.933 223.651C176.561 223.489 176.231 223.279 175.943 223.021C175.655 222.763 175.421 222.442 175.241 222.058C175.067 221.668 174.98 221.188 174.98 220.618C174.98 220.162 175.067 219.721 175.241 219.295C175.421 218.869 175.679 218.491 176.015 218.161C176.357 217.831 176.774 217.567 177.266 217.369C177.764 217.171 178.334 217.072 178.976 217.072C179.696 217.072 180.35 217.186 180.938 217.414C181.532 217.642 182.054 217.972 182.504 218.404L182.081 219.232ZM196.247 217.216V230.113H194.501V224.245H187.544V230.113H185.798V217.216H187.544V222.967H194.501V217.216H196.247ZM206.933 225.325L204.908 220.078C204.848 219.922 204.785 219.742 204.719 219.538C204.653 219.328 204.59 219.106 204.53 218.872C204.404 219.358 204.275 219.763 204.143 220.087L202.118 225.325H206.933ZM210.569 230.113H209.219C209.063 230.113 208.937 230.074 208.841 229.996C208.745 229.918 208.673 229.819 208.625 229.699L207.419 226.585H201.632L200.426 229.699C200.39 229.807 200.321 229.903 200.219 229.987C200.117 230.071 199.991 230.113 199.841 230.113H198.491L203.648 217.216H205.412L210.569 230.113ZM216.379 223.462C216.883 223.462 217.327 223.402 217.711 223.282C218.101 223.156 218.425 222.982 218.683 222.76C218.947 222.532 219.145 222.262 219.277 221.95C219.409 221.638 219.475 221.293 219.475 220.915C219.475 220.147 219.223 219.568 218.719 219.178C218.215 218.788 217.459 218.593 216.451 218.593H214.543V223.462H216.379ZM222.337 230.113H220.789C220.471 230.113 220.237 229.99 220.087 229.744L216.739 225.136C216.637 224.992 216.526 224.89 216.406 224.83C216.292 224.764 216.112 224.731 215.866 224.731H214.543V230.113H212.806V217.216H216.451C217.267 217.216 217.972 217.3 218.566 217.468C219.16 217.63 219.649 217.867 220.033 218.179C220.423 218.491 220.711 218.869 220.897 219.313C221.083 219.751 221.176 220.243 221.176 220.789C221.176 221.245 221.104 221.671 220.96 222.067C220.816 222.463 220.606 222.82 220.33 223.138C220.06 223.45 219.727 223.717 219.331 223.939C218.941 224.161 218.497 224.329 217.999 224.443C218.221 224.569 218.413 224.752 218.575 224.992L222.337 230.113ZM238.05 217.216V230.113H236.52V220.636C236.52 220.51 236.523 220.375 236.529 220.231C236.541 220.087 236.553 219.94 236.565 219.79L232.137 227.854C231.999 228.124 231.789 228.259 231.507 228.259H231.255C230.973 228.259 230.763 228.124 230.625 227.854L226.107 219.754C226.143 220.072 226.161 220.366 226.161 220.636V230.113H224.631V217.216H225.918C226.074 217.216 226.194 217.231 226.278 217.261C226.362 217.291 226.443 217.375 226.521 217.513L230.976 225.451C231.048 225.595 231.117 225.745 231.183 225.901C231.255 226.057 231.321 226.216 231.381 226.378C231.441 226.216 231.504 226.057 231.57 225.901C231.636 225.739 231.708 225.586 231.786 225.442L236.16 217.513C236.232 217.375 236.31 217.291 236.394 217.261C236.484 217.231 236.607 217.216 236.763 217.216H238.05ZM248.737 225.325L246.712 220.078C246.652 219.922 246.589 219.742 246.523 219.538C246.457 219.328 246.394 219.106 246.334 218.872C246.208 219.358 246.079 219.763 245.947 220.087L243.922 225.325H248.737ZM252.373 230.113H251.023C250.867 230.113 250.741 230.074 250.645 229.996C250.549 229.918 250.477 229.819 250.429 229.699L249.223 226.585H243.436L242.23 229.699C242.194 229.807 242.125 229.903 242.023 229.987C241.921 230.071 241.795 230.113 241.645 230.113H240.295L245.452 217.216H247.216L252.373 230.113Z" fill="white"/>
</g>
<g filter="url(#filter3_d_1_1195)">
<path d="M324.66 222.493C324.66 223.627 324.537 224.614 324.291 225.454C324.051 226.288 323.715 226.978 323.283 227.524C322.857 228.07 322.35 228.478 321.762 228.748C321.18 229.012 320.55 229.144 319.872 229.144C319.194 229.144 318.564 229.012 317.982 228.748C317.406 228.478 316.905 228.07 316.479 227.524C316.053 226.978 315.72 226.288 315.48 225.454C315.24 224.614 315.12 223.627 315.12 222.493C315.12 221.353 315.24 220.366 315.48 219.532C315.72 218.698 316.053 218.008 316.479 217.462C316.905 216.916 317.406 216.511 317.982 216.247C318.564 215.977 319.194 215.842 319.872 215.842C320.55 215.842 321.18 215.977 321.762 216.247C322.35 216.511 322.857 216.916 323.283 217.462C323.715 218.008 324.051 218.698 324.291 219.532C324.537 220.366 324.66 221.353 324.66 222.493ZM322.365 222.493C322.365 221.551 322.296 220.771 322.158 220.153C322.02 219.535 321.834 219.043 321.6 218.677C321.372 218.311 321.108 218.056 320.808 217.912C320.508 217.762 320.196 217.687 319.872 217.687C319.554 217.687 319.245 217.762 318.945 217.912C318.651 218.056 318.39 218.311 318.162 218.677C317.934 219.043 317.751 219.535 317.613 220.153C317.481 220.771 317.415 221.551 317.415 222.493C317.415 223.435 317.481 224.215 317.613 224.833C317.751 225.451 317.934 225.943 318.162 226.309C318.39 226.675 318.651 226.933 318.945 227.083C319.245 227.227 319.554 227.299 319.872 227.299C320.196 227.299 320.508 227.227 320.808 227.083C321.108 226.933 321.372 226.675 321.6 226.309C321.834 225.943 322.02 225.451 322.158 224.833C322.296 224.215 322.365 223.435 322.365 222.493ZM334.984 215.986V216.949C334.984 217.237 334.954 217.471 334.894 217.651C334.834 217.825 334.774 217.972 334.714 218.092L329.782 228.244C329.68 228.454 329.536 228.634 329.35 228.784C329.164 228.928 328.915 229 328.603 229H326.992L332.023 219.055C332.137 218.851 332.248 218.665 332.356 218.497C332.47 218.323 332.596 218.158 332.734 218.002H326.506C326.368 218.002 326.248 217.951 326.146 217.849C326.044 217.747 325.993 217.627 325.993 217.489V215.986H334.984ZM338.288 229.027C338.186 229.303 338.021 229.51 337.793 229.648C337.571 229.786 337.343 229.855 337.109 229.855H336.164L341.42 216.409C341.516 216.157 341.663 215.965 341.861 215.833C342.059 215.695 342.29 215.626 342.554 215.626H343.508L338.288 229.027ZM352.901 226.93C353.141 226.93 353.33 226.999 353.468 227.137C353.612 227.269 353.684 227.446 353.684 227.668V229H344.756V228.262C344.756 228.112 344.786 227.956 344.846 227.794C344.912 227.626 345.014 227.476 345.152 227.344L349.103 223.384C349.433 223.048 349.727 222.727 349.985 222.421C350.249 222.115 350.468 221.812 350.642 221.512C350.816 221.212 350.948 220.909 351.038 220.603C351.134 220.291 351.182 219.964 351.182 219.622C351.182 219.31 351.137 219.037 351.047 218.803C350.957 218.563 350.828 218.362 350.66 218.2C350.498 218.038 350.3 217.918 350.066 217.84C349.838 217.756 349.58 217.714 349.292 217.714C349.028 217.714 348.782 217.753 348.554 217.831C348.332 217.903 348.134 218.008 347.96 218.146C347.786 218.278 347.639 218.434 347.519 218.614C347.399 218.794 347.309 218.992 347.249 219.208C347.147 219.484 347.015 219.667 346.853 219.757C346.691 219.847 346.457 219.868 346.151 219.82L344.981 219.613C345.071 218.989 345.245 218.443 345.503 217.975C345.761 217.501 346.082 217.108 346.466 216.796C346.856 216.478 347.3 216.241 347.798 216.085C348.302 215.923 348.842 215.842 349.418 215.842C350.018 215.842 350.567 215.932 351.065 216.112C351.563 216.286 351.989 216.535 352.343 216.859C352.697 217.183 352.973 217.573 353.171 218.029C353.369 218.485 353.468 218.992 353.468 219.55C353.468 220.03 353.396 220.474 353.252 220.882C353.114 221.29 352.925 221.68 352.685 222.052C352.451 222.424 352.175 222.784 351.857 223.132C351.539 223.48 351.206 223.834 350.858 224.194L347.924 227.191C348.206 227.107 348.485 227.044 348.761 227.002C349.043 226.954 349.31 226.93 349.562 226.93H352.901ZM363.874 227.335V229H356.674V227.335H359.311V219.748C359.311 219.448 359.32 219.139 359.338 218.821L357.466 220.387C357.358 220.471 357.25 220.525 357.142 220.549C357.04 220.567 356.941 220.567 356.845 220.549C356.755 220.531 356.674 220.501 356.602 220.459C356.53 220.411 356.476 220.36 356.44 220.306L355.738 219.343L359.707 215.968H361.534V227.335H363.874Z" fill="white"/>
</g>
<path d="M341.983 63.2765H322.731V94.7203H341.983V63.2765Z" fill="#FF5F00"/>
<path d="M324.714 79.001C324.712 75.9732 325.398 72.9846 326.722 70.2613C328.045 67.5379 329.97 65.1513 332.352 63.2819C329.402 60.9635 325.859 59.5219 322.129 59.1218C318.398 58.7216 314.631 59.379 311.256 61.0189C307.882 62.6588 305.036 65.215 303.046 68.3954C301.056 71.5757 300 75.2519 300 79.0038C300 82.7556 301.056 86.4318 303.046 89.6122C305.036 92.7925 307.882 95.3487 311.256 96.9886C314.631 98.6285 318.398 99.2859 322.129 98.8858C325.859 98.4856 329.402 97.044 332.352 94.7257C329.969 92.8557 328.044 90.4681 326.72 87.7438C325.397 85.0194 324.711 82.0297 324.714 79.001Z" fill="#F24E1E"/>
<path d="M362.796 91.3932V90.7489H363.074V90.6156H362.413V90.7489H362.674V91.3932H362.796ZM364.079 91.3932V90.6156H363.879L363.646 91.171L363.412 90.6156H363.212V91.3932H363.357V90.8045L363.573 91.3099H363.723L363.94 90.8045V91.3932H364.079Z" fill="#F79E1B"/>
<path d="M364.707 79.0012C364.706 82.7533 363.651 86.4297 361.66 89.6102C359.669 92.7906 356.824 95.3468 353.449 96.9865C350.074 98.6261 346.306 99.2831 342.575 98.8824C338.844 98.4817 335.301 97.0393 332.352 94.7203C334.733 92.8492 336.657 90.4619 337.981 87.7384C339.304 85.0149 339.992 82.0264 339.992 78.9984C339.992 75.9703 339.304 72.9818 337.981 70.2584C336.657 67.5349 334.733 65.1475 332.352 63.2765C335.301 60.9574 338.844 59.5151 342.575 59.1144C346.306 58.7136 350.074 59.3707 353.449 61.0103C356.824 62.65 359.669 65.2061 361.66 68.3866C363.651 71.567 364.706 75.2435 364.707 78.9956V79.0012Z" fill="#FFD25F"/>
</g>
</g>
<defs>
<filter id="filter0_d_1_1195" x="-10" y="0" width="444" height="320" filterUnits="userSpaceOnUse" color-interpolation-filters="sRGB">
<feFlood flood-opacity="0" result="BackgroundImageFix"/>
<feColorMatrix in="SourceAlpha" type="matrix" values="0 0 0 0 0 0 0 0 0 0 0 0 0 0 0 0 0 0 127 0" result="hardAlpha"/>
<feOffset dy="12"/>
<feGaussianBlur stdDeviation="20"/>
<feColorMatrix type="matrix" values="0 0 0 0 0.721569 0 0 0 0 0.580392 0 0 0 0 0.843137 0 0 0 0.35 0"/>
<feBlend mode="normal" in2="BackgroundImageFix" result="effect1_dropShadow_1_1195"/>
<feBlend mode="normal" in="SourceGraphic" in2="effect1_dropShadow_1_1195" result="shape"/>
</filter>
<filter id="filter1_d_1_1195" x="47.7871" y="130.614" width="318.661" height="24.2875" filterUnits="userSpaceOnUse" color-interpolation-filters="sRGB">
<feFlood flood-opacity="0" result="BackgroundImageFix"/>
<feColorMatrix in="SourceAlpha" type="matrix" values="0 0 0 0 0 0 0 0 0 0 0 0 0 0 0 0 0 0 127 0" result="hardAlpha"/>
<feOffset dy="0.701049"/>
<feGaussianBlur stdDeviation="1.5"/>
<feColorMatrix type="matrix" values="0 0 0 0 0.302166 0 0 0 0 0.0193229 0 0 0 0 0.6625 0 0 0 0.3 0"/>
<feBlend mode="normal" in2="BackgroundImageFix" result="effect1_dropShadow_1_1195"/>
<feBlend mode="normal" in="SourceGraphic" in2="effect1_dropShadow_1_1195" result="shape"/>
</filter>
<filter id="filter2_d_1_1195" x="44.054" y="214.773" width="211.319" height="19.185" filterUnits="userSpaceOnUse" color-interpolation-filters="sRGB">
<feFlood flood-opacity="0" result="BackgroundImageFix"/>
<feColorMatrix in="SourceAlpha" type="matrix" values="0 0 0 0 0 0 0 0 0 0 0 0 0 0 0 0 0 0 127 0" result="hardAlpha"/>
<feOffset dy="0.701049"/>
<feGaussianBlur stdDeviation="1.5"/>
<feColorMatrix type="matrix" values="0 0 0 0 0.302166 0 0 0 0 0.0193229 0 0 0 0 0.6625 0 0 0 0.3 0"/>
<feBlend mode="normal" in2="BackgroundImageFix" result="effect1_dropShadow_1_1195"/>
<feBlend mode="normal" in="SourceGraphic" in2="effect1_dropShadow_1_1195" result="shape"/>
</filter>
<filter id="filter3_d_1_1195" x="312.12" y="213.327" width="54.7539" height="20.229" filterUnits="userSpaceOnUse" color-interpolation-filters="sRGB">
<feFlood flood-opacity="0" result="BackgroundImageFix"/>
<feColorMatrix in="SourceAlpha" type="matrix" values="0 0 0 0 0 0 0 0 0 0 0 0 0 0 0 0 0 0 127 0" result="hardAlpha"/>
<feOffset dy="0.701049"/>
<feGaussianBlur stdDeviation="1.5"/>
<feColorMatrix type="matrix" values="0 0 0 0 0.302166 0 0 0 0 0.0193229 0 0 0 0 0.6625 0 0 0 0.3 0"/>
<feBlend mode="normal" in2="BackgroundImageFix" result="effect1_dropShadow_1_1195"/>
<feBlend mode="normal" in="SourceGraphic" in2="effect1_dropShadow_1_1195" result="shape"/>
</filter>
<linearGradient id="paint0_linear_1_1195" x1="30" y1="148" x2="384" y2="148" gradientUnits="userSpaceOnUse">
<stop stop-color="#8164F1"/>
<stop offset="1" stop-color="#6A45FF"/>
</linearGradient>
</defs>
</svg>
