<svg width="17" height="17" viewBox="0 0 17 17" fill="none" xmlns="http://www.w3.org/2000/svg">
<path d="M16.2006 14.3042C16.4194 14.5261 16.5409 14.8181 16.5287 15.1217C16.5287 15.4254 16.4072 15.7057 16.1763 15.9276C15.9576 16.1378 15.6538 16.2662 15.3379 16.2662C15.022 16.2662 14.7182 16.1611 14.4873 15.9509L7.60971 9.34086C7.50035 9.23575 7.41529 9.10729 7.35453 8.96714C7.29378 8.827 7.25732 8.67518 7.25732 8.52336C7.25732 8.37154 7.29378 8.21972 7.35453 8.06789C7.41529 7.92775 7.50035 7.79929 7.60971 7.69418L14.4873 1.08412C14.5967 0.979014 14.7303 0.885586 14.8762 0.827193C15.0341 0.7688 15.1921 0.733765 15.35 0.733765C15.508 0.733765 15.6781 0.757122 15.8239 0.815515C15.9698 0.873907 16.1034 0.967336 16.2249 1.07244C16.3343 1.17755 16.4194 1.31769 16.4801 1.45783C16.553 1.59798 16.5773 1.7498 16.5773 1.9133C16.5773 2.06512 16.5409 2.21694 16.4801 2.35708C16.4194 2.49723 16.3221 2.62569 16.2006 2.74248L10.1858 8.52336L11.328 9.60946L16.2006 14.3042Z" fill="#A2A2A2"/>
<path d="M16.2006 14.3042C16.4194 14.5261 16.5409 14.8181 16.5287 15.1217C16.5287 15.4254 16.4072 15.7057 16.1763 15.9276C15.9576 16.1378 15.6538 16.2662 15.3379 16.2662C15.022 16.2662 14.7182 16.1611 14.4873 15.9509L7.60971 9.34086C7.50035 9.23575 7.41529 9.10729 7.35453 8.96714C7.29378 8.827 7.25732 8.67518 7.25732 8.52336C7.25732 8.37154 7.29378 8.21972 7.35453 8.06789C7.41529 7.92775 7.50035 7.79929 7.60971 7.69418L14.4873 1.08412C14.5967 0.979014 14.7303 0.885586 14.8762 0.827193C15.0341 0.7688 15.1921 0.733765 15.35 0.733765C15.508 0.733765 15.6781 0.757122 15.8239 0.815515C15.9698 0.873907 16.1034 0.967336 16.2249 1.07244C16.3343 1.17755 16.4194 1.31769 16.4801 1.45783C16.553 1.59798 16.5773 1.7498 16.5773 1.9133C16.5773 2.06512 16.5409 2.21694 16.4801 2.35708C16.4194 2.49723 16.3221 2.62569 16.2006 2.74248L10.1858 8.52336L11.328 9.60946L16.2006 14.3042Z" stroke="#A2A2A2"/>
<path d="M1.24138 2.69576C1.02266 2.47387 0.901147 2.1819 0.913299 1.87826C0.913299 1.57462 1.03481 1.29433 1.26568 1.07244C1.48441 0.862227 1.78819 0.733762 2.10412 0.733762C2.42005 0.733762 2.72383 0.838869 2.95471 1.04908L9.83231 7.65914C9.94167 7.76425 10.0267 7.89271 10.0875 8.03286C10.1482 8.173 10.1847 8.32482 10.1847 8.47664C10.1847 8.62846 10.1482 8.78028 10.0875 8.93211C10.0267 9.07225 9.94167 9.20071 9.83231 9.30582L2.95471 15.9159C2.84534 16.021 2.71168 16.1144 2.56587 16.1728C2.4079 16.2312 2.24993 16.2662 2.09197 16.2662C1.934 16.2662 1.76388 16.2429 1.61807 16.1845C1.47225 16.1261 1.33859 16.0327 1.21708 15.9276C1.10772 15.8224 1.02266 15.6823 0.961903 15.5422C0.888995 15.402 0.864693 15.2502 0.864693 15.0867C0.864693 14.9349 0.901147 14.7831 0.961903 14.6429C1.02266 14.5028 1.11987 14.3743 1.24138 14.2575L7.25624 8.47664L6.11403 7.39054L1.24138 2.69576Z" fill="#A2A2A2"/>
<path d="M1.24138 2.69576C1.02266 2.47387 0.901147 2.1819 0.913299 1.87826C0.913299 1.57462 1.03481 1.29433 1.26568 1.07244C1.48441 0.862227 1.78819 0.733762 2.10412 0.733762C2.42005 0.733762 2.72383 0.838869 2.95471 1.04908L9.83231 7.65914C9.94167 7.76425 10.0267 7.89271 10.0875 8.03286C10.1482 8.173 10.1847 8.32482 10.1847 8.47664C10.1847 8.62846 10.1482 8.78028 10.0875 8.93211C10.0267 9.07225 9.94167 9.20071 9.83231 9.30582L2.95471 15.9159C2.84534 16.021 2.71168 16.1144 2.56587 16.1728C2.4079 16.2312 2.24993 16.2662 2.09197 16.2662C1.934 16.2662 1.76388 16.2429 1.61807 16.1845C1.47225 16.1261 1.33859 16.0327 1.21708 15.9276C1.10772 15.8224 1.02266 15.6823 0.961903 15.5422C0.888995 15.402 0.864693 15.2502 0.864693 15.0867C0.864693 14.9349 0.901147 14.7831 0.961903 14.6429C1.02266 14.5028 1.11987 14.3743 1.24138 14.2575L7.25624 8.47664L6.11403 7.39054L1.24138 2.69576Z" stroke="#A2A2A2"/>
</svg>
