<svg width="121" height="30" viewBox="0 0 121 30" fill="none" xmlns="http://www.w3.org/2000/svg">
<path d="M6.61765 8L8.1034 12.8369H12.9114L9.02165 15.8262L10.5074 20.6631L6.61765 17.6738L2.72789 20.6631L4.21365 15.8262L0.323891 12.8369H5.13189L6.61765 8Z" fill="#FCDD8D"/>
<path d="M45 8L46.4858 12.8369H51.2938L47.404 15.8262L48.8898 20.6631L45 17.6738L41.1103 20.6631L42.596 15.8262L38.7063 12.8369H43.5143L45 8Z" fill="#FCDD8D"/>
<path d="M25.8088 8L27.2946 12.8369H32.1026L28.2128 15.8262L29.6986 20.6631L25.8088 17.6738L21.9191 20.6631L23.4048 15.8262L19.5151 12.8369H24.3231L25.8088 8Z" fill="#FCDD8D"/>
<path d="M64.1912 8L65.677 12.8369H70.485L66.5952 15.8262L68.081 20.6631L64.1912 17.6738L60.3014 20.6631L61.7872 15.8262L57.8974 12.8369H62.7054L64.1912 8Z" fill="#FCDD8D"/>
<path d="M83.3824 8L84.8681 12.8369H89.6761L85.7864 15.8262L87.2721 20.6631L83.3824 17.6738L79.4926 20.6631L80.9784 15.8262L77.0886 12.8369H81.8966L83.3824 8Z" fill="#DADADA"/>
<path d="M100.348 15.5405C100.348 16.3252 100.447 17.0878 100.645 17.8285C100.846 18.5692 101.14 19.2732 101.525 19.9405C101.583 20.0542 101.598 20.1403 101.569 20.199C101.539 20.2613 101.497 20.3108 101.442 20.3475L101.008 20.6115C100.733 20.1898 100.498 19.7718 100.304 19.3575C100.113 18.9432 99.957 18.527 99.836 18.109C99.7187 17.691 99.6325 17.2712 99.5775 16.8495C99.5225 16.4242 99.495 15.9878 99.495 15.5405C99.495 15.0968 99.5225 14.6623 99.5775 14.237C99.6325 13.8117 99.7187 13.3918 99.836 12.9775C99.957 12.5595 100.113 12.1433 100.304 11.729C100.498 11.3147 100.733 10.8948 101.008 10.4695L101.442 10.739C101.497 10.7757 101.539 10.8252 101.569 10.8875C101.598 10.9462 101.583 11.0305 101.525 11.1405C101.14 11.8078 100.846 12.5118 100.645 13.2525C100.447 13.9932 100.348 14.7558 100.348 15.5405ZM105.948 16.1565V12.906C105.948 12.8107 105.951 12.7062 105.959 12.5925C105.966 12.4788 105.977 12.3633 105.992 12.246L103.121 16.1565H105.948ZM107.999 16.1565V16.7175C107.999 16.7762 107.981 16.8257 107.944 16.866C107.911 16.9063 107.858 16.9265 107.785 16.9265H106.806V19H105.948V16.9265H102.45C102.376 16.9265 102.312 16.9063 102.257 16.866C102.206 16.822 102.173 16.7688 102.158 16.7065L102.059 16.206L105.893 11.1185H106.806V16.1565H107.999ZM108.924 18.395C108.924 18.2997 108.94 18.2098 108.973 18.1255C109.01 18.0412 109.058 17.9678 109.116 17.9055C109.179 17.8432 109.252 17.7937 109.336 17.757C109.421 17.7203 109.511 17.702 109.606 17.702C109.701 17.702 109.791 17.7203 109.875 17.757C109.96 17.7937 110.033 17.8432 110.095 17.9055C110.158 17.9678 110.207 18.0412 110.244 18.1255C110.281 18.2098 110.299 18.2997 110.299 18.395C110.299 18.494 110.281 18.5857 110.244 18.67C110.207 18.7507 110.158 18.8222 110.095 18.8845C110.033 18.9468 109.96 18.9945 109.875 19.0275C109.791 19.0642 109.701 19.0825 109.606 19.0825C109.511 19.0825 109.421 19.0642 109.336 19.0275C109.252 18.9945 109.179 18.9468 109.116 18.8845C109.058 18.8222 109.01 18.7507 108.973 18.67C108.94 18.5857 108.924 18.494 108.924 18.395ZM112.904 14.094C113.315 14.006 113.692 13.962 114.037 13.962C114.448 13.962 114.811 14.0225 115.126 14.1435C115.441 14.2645 115.704 14.4313 115.913 14.644C116.125 14.8567 116.285 15.1078 116.391 15.3975C116.501 15.6872 116.556 16.0025 116.556 16.3435C116.556 16.7615 116.483 17.1392 116.336 17.4765C116.193 17.8138 115.993 18.1035 115.737 18.3455C115.484 18.5838 115.185 18.7672 114.84 18.8955C114.495 19.0238 114.123 19.088 113.724 19.088C113.493 19.088 113.271 19.0642 113.058 19.0165C112.845 18.9725 112.646 18.912 112.459 18.835C112.275 18.758 112.105 18.67 111.947 18.571C111.789 18.472 111.65 18.3675 111.529 18.2575L111.832 17.8395C111.898 17.7442 111.984 17.6965 112.09 17.6965C112.163 17.6965 112.246 17.7258 112.338 17.7845C112.429 17.8395 112.541 17.9018 112.673 17.9715C112.805 18.0412 112.959 18.1053 113.135 18.164C113.315 18.219 113.527 18.2465 113.773 18.2465C114.048 18.2465 114.296 18.2025 114.516 18.1145C114.736 18.0265 114.924 17.9018 115.082 17.7405C115.24 17.5755 115.361 17.3793 115.445 17.152C115.529 16.9247 115.572 16.6698 115.572 16.3875C115.572 16.1418 115.535 15.92 115.462 15.722C115.392 15.524 115.284 15.3553 115.137 15.216C114.994 15.0767 114.814 14.9685 114.598 14.8915C114.382 14.8145 114.129 14.776 113.839 14.776C113.641 14.776 113.434 14.7925 113.218 14.8255C113.005 14.8585 112.787 14.9117 112.563 14.985L111.947 14.8035L112.58 11.1185H116.314V11.5475C116.314 11.6868 116.27 11.8023 116.182 11.894C116.098 11.982 115.951 12.026 115.742 12.026H113.267L112.904 14.094ZM118.883 15.5405C118.883 14.7558 118.783 13.9932 118.581 13.2525C118.383 12.5118 118.091 11.8078 117.706 11.1405C117.677 11.0855 117.659 11.0378 117.651 10.9975C117.644 10.9535 117.646 10.9168 117.657 10.8875C117.668 10.8545 117.684 10.827 117.706 10.805C117.732 10.7793 117.76 10.7573 117.789 10.739L118.223 10.4695C118.498 10.8948 118.731 11.3147 118.922 11.729C119.116 12.1433 119.272 12.5595 119.389 12.9775C119.51 13.3918 119.598 13.8117 119.653 14.237C119.708 14.6623 119.736 15.0968 119.736 15.5405C119.736 15.9878 119.708 16.4242 119.653 16.8495C119.598 17.2712 119.51 17.691 119.389 18.109C119.272 18.527 119.116 18.9432 118.922 19.3575C118.731 19.7718 118.498 20.1898 118.223 20.6115L117.789 20.3475C117.76 20.3292 117.732 20.3072 117.706 20.2815C117.684 20.2595 117.668 20.232 117.657 20.199C117.646 20.1697 117.644 20.133 117.651 20.089C117.659 20.045 117.677 19.9955 117.706 19.9405C118.091 19.2732 118.383 18.5692 118.581 17.8285C118.783 17.0878 118.883 16.3252 118.883 15.5405Z" fill="#C4C4C4"/>
</svg>
